<svg width="33" height="30" fill="none" xmlns="http://www.w3.org/2000/svg"><path fill-rule="evenodd" clip-rule="evenodd" d="m32.017 11.952.004 6.038c-.042.576-.097 1.15-.164 1.724a2.12 2.12 0 0 1-1.87 1.842c-3.067.342-6.24.342-9.306 0a2.12 2.12 0 0 1-1.871-1.842 40.573 40.573 0 0 1 0-9.427 2.12 2.12 0 0 1 1.87-1.843 42.241 42.241 0 0 1 9.306 0 2.12 2.12 0 0 1 1.87 1.842c.066.555.12 1.11.16 1.666Zm-6.684.548a2.5 2.5 0 1 0 0 5 2.5 2.5 0 0 0 0-5Z" fill="#fff"/><path d="M31.006 5.066c.26.449-.227.952-.742.894a44.742 44.742 0 0 0-9.861 0c-2.116.236-3.827 1.902-4.076 4.036a43.07 43.07 0 0 0 0 10.008c.25 2.134 1.96 3.8 4.076 4.036 3.25.363 6.61.363 9.86 0 .52-.058 1.01.448.748.9a8.285 8.285 0 0 1-6.3 4.082l-1.086.115a74.411 74.411 0 0 1-16.593-.114l-.72-.086a6.552 6.552 0 0 1-5.72-5.64 62.735 62.735 0 0 1 0-16.594 6.552 6.552 0 0 1 5.72-5.64l.72-.085A74.416 74.416 0 0 1 23.625.863l1.086.115c2.691.283 5 1.847 6.295 4.088Z" fill="#fff"/></svg>