<svg width="38" height="38" fill="none" xmlns="http://www.w3.org/2000/svg"><path d="M38 19C38 8.507 29.493 0 19 0S0 8.507 0 19s8.507 19 19 19 19-8.507 19-19Z" fill="#fff"/><path fill-rule="evenodd" clip-rule="evenodd" d="M28.298 19.216c0-.674-.06-1.321-.173-1.943h-8.947v3.675h5.113a4.37 4.37 0 0 1-1.896 2.867v2.383h3.07c1.797-1.653 2.833-4.089 2.833-6.982Z" fill="#4285F4"/><path fill-rule="evenodd" clip-rule="evenodd" d="M19.178 28.5c2.565 0 4.715-.85 6.287-2.302l-3.07-2.383c-.851.57-1.94.907-3.217.907-2.475 0-4.569-1.672-5.316-3.917h-3.174v2.461a9.497 9.497 0 0 0 8.49 5.234Z" fill="#34A853"/><path fill-rule="evenodd" clip-rule="evenodd" d="M13.862 20.805A5.71 5.71 0 0 1 13.564 19c0-.626.108-1.235.298-1.805v-2.461h-3.174A9.496 9.496 0 0 0 9.678 19c0 1.533.367 2.984 1.01 4.266l3.174-2.461Z" fill="#FBBC05"/><path fill-rule="evenodd" clip-rule="evenodd" d="M19.178 13.278c1.394 0 2.647.48 3.631 1.421l2.725-2.725C23.889 10.441 21.738 9.5 19.178 9.5a9.497 9.497 0 0 0-8.49 5.234l3.174 2.461c.747-2.245 2.841-3.917 5.316-3.917Z" fill="#EA4335"/></svg>